<svg width="41" height="41" viewBox="0 0 41 41" fill="none" xmlns="http://www.w3.org/2000/svg">
<path d="M20.4844 3.48047C10.8242 3.47656 3 11.2969 3 20.9492C3 28.582 7.89453 35.0703 14.7109 37.4531C15.6289 37.6836 15.4883 37.0313 15.4883 36.5859V33.5586C10.1875 34.1797 9.97266 30.6719 9.61719 30.0859C8.89844 28.8594 7.19922 28.5469 7.70703 27.9609C8.91406 27.3398 10.1445 28.1172 11.5703 30.2227C12.6016 31.75 14.6133 31.4922 15.6328 31.2383C15.8555 30.3203 16.332 29.5 16.9883 28.8633C11.4961 27.8789 9.20703 24.5273 9.20703 20.543C9.20703 18.6094 9.84375 16.832 11.0937 15.3984C10.2969 13.0352 11.168 11.0117 11.2852 10.7109C13.5547 10.5078 15.9141 12.3359 16.0977 12.4805C17.3867 12.1328 18.8594 11.9492 20.5078 11.9492C22.1641 11.9492 23.6406 12.1406 24.9414 12.4922C25.3828 12.1563 27.5703 10.5859 29.6797 10.7773C29.793 11.0781 30.6445 13.0547 29.8945 15.3867C31.1602 16.8242 31.8047 18.6172 31.8047 20.5547C31.8047 24.5469 29.5 27.9023 23.9922 28.8711C24.4639 29.335 24.8385 29.8883 25.0941 30.4987C25.3496 31.109 25.481 31.7641 25.4805 32.4258V36.8203C25.5117 37.1719 25.4805 37.5195 26.0664 37.5195C32.9844 35.1875 37.9648 28.6523 37.9648 20.9531C37.9648 11.2969 30.1367 3.48047 20.4844 3.48047V3.48047Z" fill="url(#paint0_linear_434_734)"/>
<defs>
<linearGradient id="paint0_linear_434_734" x1="20.4824" y1="3.48047" x2="20.4824" y2="37.5195" gradientUnits="userSpaceOnUse">
<stop stop-color="#7D38FC"/>
<stop offset="1" stop-color="#5256FF"/>
</linearGradient>
</defs>
</svg>
