<svg width="41" height="41" viewBox="0 0 41 41" fill="none" xmlns="http://www.w3.org/2000/svg">
<path d="M20.5 1.2998C9.89599 1.2998 1.29999 9.89581 1.29999 20.4998C1.29999 31.1038 9.89599 39.6998 20.5 39.6998C31.104 39.6998 39.7 31.1038 39.7 20.4998C39.7 9.89581 31.104 1.2998 20.5 1.2998ZM15.8 28.4578H11.912V15.9458H15.8V28.4578ZM13.832 14.4098C12.604 14.4098 11.81 13.5398 11.81 12.4638C11.81 11.3658 12.628 10.5218 13.882 10.5218C15.136 10.5218 15.904 11.3658 15.928 12.4638C15.928 13.5398 15.136 14.4098 13.832 14.4098ZM30 28.4578H26.112V21.5238C26.112 19.9098 25.548 18.8138 24.142 18.8138C23.068 18.8138 22.43 19.5558 22.148 20.2698C22.044 20.5238 22.018 20.8838 22.018 21.2418V28.4558H18.128V19.9358C18.128 18.3738 18.078 17.0678 18.026 15.9438H21.404L21.582 17.6818H21.66C22.172 16.8658 23.426 15.6618 25.524 15.6618C28.082 15.6618 30 17.3758 30 21.0598V28.4578V28.4578Z" fill="url(#paint0_linear_434_731)"/>
<defs>
<linearGradient id="paint0_linear_434_731" x1="20.5" y1="1.2998" x2="20.5" y2="39.6998" gradientUnits="userSpaceOnUse">
<stop stop-color="#7D38FC"/>
<stop offset="1" stop-color="#5256FF"/>
</linearGradient>
</defs>
</svg>
