<svg width="36" height="35" viewBox="0 0 36 35" fill="none" xmlns="http://www.w3.org/2000/svg">
<path fill-rule="evenodd" clip-rule="evenodd" d="M10.7852 0.105C12.6514 0.0190909 13.2464 0 18 0C22.7536 0 23.3486 0.0206818 25.2132 0.105C27.0777 0.189318 28.3505 0.486818 29.4641 0.917955C30.6302 1.35864 31.6882 2.0475 32.5632 2.93841C33.4541 3.81182 34.1414 4.86818 34.5805 6.03591C35.0132 7.14955 35.3091 8.42227 35.395 10.2836C35.4809 12.153 35.5 12.748 35.5 17.5C35.5 22.2536 35.4793 22.8486 35.395 24.7148C35.3107 26.5761 35.0132 27.8489 34.5805 28.9625C34.1414 30.1304 33.4529 31.1885 32.5632 32.0632C31.6882 32.9541 30.6302 33.6414 29.4641 34.0805C28.3505 34.5132 27.0777 34.8091 25.2164 34.895C23.3486 34.9809 22.7536 35 18 35C13.2464 35 12.6514 34.9793 10.7852 34.895C8.92386 34.8107 7.65114 34.5132 6.5375 34.0805C5.36965 33.6413 4.31153 32.9529 3.43682 32.0632C2.54651 31.1892 1.85755 30.1316 1.41795 28.9641C0.986818 27.8505 0.690909 26.5777 0.605 24.7164C0.519091 22.847 0.5 22.252 0.5 17.5C0.5 12.7464 0.520682 12.1514 0.605 10.2868C0.689318 8.42227 0.986818 7.14955 1.41795 6.03591C1.8582 4.86831 2.54769 3.81073 3.43841 2.93682C4.31188 2.04671 5.36893 1.35775 6.53591 0.917955C7.64955 0.486818 8.92227 0.190909 10.7836 0.105H10.7852ZM25.0716 3.255C23.2261 3.17068 22.6725 3.15318 18 3.15318C13.3275 3.15318 12.7739 3.17068 10.9284 3.255C9.22136 3.33295 8.29545 3.61773 7.67818 3.85795C6.86205 4.17614 6.27818 4.55318 5.66568 5.16568C5.08507 5.73054 4.63824 6.41818 4.35795 7.17818C4.11773 7.79545 3.83295 8.72136 3.755 10.4284C3.67068 12.2739 3.65318 12.8275 3.65318 17.5C3.65318 22.1725 3.67068 22.7261 3.755 24.5716C3.83295 26.2786 4.11773 27.2045 4.35795 27.8218C4.63795 28.5807 5.085 29.2695 5.66568 29.8343C6.23046 30.415 6.91932 30.862 7.67818 31.142C8.29545 31.3823 9.22136 31.667 10.9284 31.745C12.7739 31.8293 13.3259 31.8468 18 31.8468C22.6741 31.8468 23.2261 31.8293 25.0716 31.745C26.7786 31.667 27.7045 31.3823 28.3218 31.142C29.138 30.8239 29.7218 30.4468 30.3343 29.8343C30.915 29.2695 31.362 28.5807 31.642 27.8218C31.8823 27.2045 32.167 26.2786 32.245 24.5716C32.3293 22.7261 32.3468 22.1725 32.3468 17.5C32.3468 12.8275 32.3293 12.2739 32.245 10.4284C32.167 8.72136 31.8823 7.79545 31.642 7.17818C31.3239 6.36205 30.9468 5.77818 30.3343 5.16568C29.7694 4.58511 29.0818 4.13829 28.3218 3.85795C27.7045 3.61773 26.7786 3.33295 25.0716 3.255ZM15.7648 22.8948C17.0131 23.4144 18.4031 23.4845 19.6974 23.0932C20.9917 22.7018 22.1099 21.8733 22.8612 20.749C23.6125 19.6248 23.9501 18.2746 23.8164 16.929C23.6828 15.5835 23.0861 14.3261 22.1284 13.3716C21.5179 12.7614 20.7797 12.2942 19.9669 12.0036C19.1541 11.713 18.287 11.6063 17.4281 11.691C16.5691 11.7757 15.7396 12.0498 14.9992 12.4936C14.2589 12.9374 13.6262 13.5398 13.1466 14.2575C12.6671 14.9752 12.3526 15.7902 12.2258 16.644C12.0991 17.4978 12.1632 18.3691 12.4136 19.1951C12.664 20.0212 13.0944 20.7814 13.6739 21.4211C14.2533 22.0609 14.9674 22.5642 15.7648 22.8948ZM11.6395 11.1395C12.4748 10.3043 13.4664 9.64171 14.5577 9.18967C15.6491 8.73762 16.8188 8.50496 18 8.50496C19.1812 8.50496 20.3509 8.73762 21.4423 9.18967C22.5336 9.64171 23.5252 10.3043 24.3605 11.1395C25.1957 11.9748 25.8583 12.9664 26.3103 14.0577C26.7624 15.1491 26.995 16.3188 26.995 17.5C26.995 18.6812 26.7624 19.8509 26.3103 20.9423C25.8583 22.0336 25.1957 23.0252 24.3605 23.8605C22.6736 25.5474 20.3856 26.495 18 26.495C15.6144 26.495 13.3264 25.5474 11.6395 23.8605C9.95265 22.1736 9.00496 19.8856 9.00496 17.5C9.00496 15.1144 9.95265 12.8264 11.6395 11.1395ZM28.99 9.84455C29.197 9.64929 29.3627 9.41449 29.4773 9.15405C29.5919 8.89361 29.6531 8.61281 29.6573 8.3283C29.6614 8.04378 29.6084 7.76133 29.5014 7.49765C29.3945 7.23398 29.2357 6.99445 29.0345 6.79324C28.8333 6.59204 28.5937 6.43325 28.3301 6.32628C28.0664 6.21931 27.7839 6.16633 27.4994 6.17047C27.2149 6.17462 26.9341 6.23581 26.6737 6.35043C26.4132 6.46504 26.1784 6.63074 25.9832 6.83773C25.6034 7.24027 25.3956 7.77497 25.4036 8.3283C25.4117 8.88163 25.6351 9.41003 26.0264 9.80134C26.4177 10.1926 26.9461 10.416 27.4994 10.4241C28.0528 10.4322 28.5875 10.2243 28.99 9.84455Z" fill="url(#paint0_linear_434_733)"/>
<defs>
<linearGradient id="paint0_linear_434_733" x1="18" y1="0" x2="18" y2="35" gradientUnits="userSpaceOnUse">
<stop stop-color="#7D38FC"/>
<stop offset="1" stop-color="#5256FF"/>
</linearGradient>
</defs>
</svg>
