<svg width="234" height="50" viewBox="0 0 234 50" fill="none" xmlns="http://www.w3.org/2000/svg">
<path d="M6.65014 34.468C5.66614 34.468 4.70014 34.3 3.75214 33.964C2.81614 33.628 1.97014 33.136 1.21414 32.488L4.67014 28.348C4.87414 28.504 5.13814 28.666 5.46214 28.834C5.78614 28.99 6.18214 29.068 6.65014 29.068C7.21414 29.068 7.73014 28.93 8.19814 28.654C8.66614 28.366 9.03814 27.988 9.31414 27.52C9.60214 27.052 9.74614 26.536 9.74614 25.972V8.8H15.1461V25.972C15.1461 27.532 14.7621 28.954 13.9941 30.238C13.2261 31.522 12.2001 32.548 10.9161 33.316C9.63214 34.084 8.21014 34.468 6.65014 34.468ZM27.3788 34.468C25.7228 34.468 24.2108 34.042 22.8428 33.19C21.4868 32.338 20.4008 31.198 19.5848 29.77C18.7808 28.33 18.3788 26.74 18.3788 25C18.3788 23.68 18.6128 22.45 19.0808 21.31C19.5488 20.158 20.1908 19.15 21.0068 18.286C21.8348 17.41 22.7948 16.726 23.8868 16.234C24.9788 15.742 26.1428 15.496 27.3788 15.496C29.0348 15.496 30.5408 15.922 31.8968 16.774C33.2648 17.626 34.3508 18.772 35.1548 20.212C35.9708 21.652 36.3788 23.248 36.3788 25C36.3788 26.308 36.1448 27.532 35.6768 28.672C35.2088 29.812 34.5608 30.82 33.7328 31.696C32.9168 32.56 31.9628 33.238 30.8708 33.73C29.7908 34.222 28.6268 34.468 27.3788 34.468ZM27.3788 29.068C28.0628 29.068 28.6748 28.882 29.2148 28.51C29.7668 28.138 30.1988 27.646 30.5108 27.034C30.8228 26.41 30.9788 25.732 30.9788 25C30.9788 24.244 30.8108 23.554 30.4748 22.93C30.1508 22.306 29.7128 21.814 29.1608 21.454C28.6208 21.082 28.0268 20.896 27.3788 20.896C26.7068 20.896 26.0948 21.088 25.5428 21.472C25.0028 21.844 24.5708 22.342 24.2468 22.966C23.9348 23.59 23.7788 24.268 23.7788 25C23.7788 25.768 23.9408 26.458 24.2648 27.07C24.6008 27.682 25.0388 28.168 25.5788 28.528C26.1308 28.888 26.7308 29.068 27.3788 29.068ZM52.1758 16H57.5758V34H52.1578L51.9058 32.38C51.4618 33.004 50.8978 33.508 50.2138 33.892C49.5418 34.276 48.7558 34.468 47.8558 34.468C46.5118 34.468 45.2518 34.216 44.0758 33.712C42.9118 33.208 41.8858 32.512 40.9978 31.624C40.1098 30.724 39.4138 29.692 38.9098 28.528C38.4178 27.352 38.1718 26.092 38.1718 24.748C38.1718 23.464 38.4058 22.264 38.8738 21.148C39.3418 20.032 39.9958 19.054 40.8358 18.214C41.6878 17.362 42.6658 16.696 43.7698 16.216C44.8858 15.736 46.0798 15.496 47.3518 15.496C48.3838 15.496 49.3198 15.712 50.1598 16.144C51.0118 16.564 51.7678 17.092 52.4278 17.728L52.1758 16ZM47.7118 29.284C48.4558 29.284 49.1338 29.092 49.7458 28.708C50.3578 28.324 50.8438 27.808 51.2038 27.16C51.5638 26.512 51.7438 25.792 51.7438 25C51.7438 24.208 51.5638 23.488 51.2038 22.84C50.8438 22.192 50.3578 21.676 49.7458 21.292C49.1338 20.908 48.4558 20.716 47.7118 20.716C46.9678 20.716 46.2898 20.908 45.6778 21.292C45.0778 21.676 44.5978 22.192 44.2378 22.84C43.8898 23.488 43.7158 24.208 43.7158 25C43.7158 25.792 43.8958 26.512 44.2558 27.16C44.6158 27.808 45.0958 28.324 45.6958 28.708C46.3078 29.092 46.9798 29.284 47.7118 29.284ZM68.7577 34.468C67.1017 34.468 65.5897 34.042 64.2217 33.19C62.8657 32.338 61.7797 31.198 60.9637 29.77C60.1597 28.33 59.7577 26.74 59.7577 25C59.7577 23.68 59.9917 22.45 60.4597 21.31C60.9277 20.158 61.5697 19.15 62.3857 18.286C63.2137 17.41 64.1737 16.726 65.2657 16.234C66.3577 15.742 67.5217 15.496 68.7577 15.496C70.4137 15.496 71.9197 15.922 73.2757 16.774C74.6437 17.626 75.7297 18.772 76.5337 20.212C77.3497 21.652 77.7577 23.248 77.7577 25C77.7577 26.308 77.5237 27.532 77.0557 28.672C76.5877 29.812 75.9397 30.82 75.1117 31.696C74.2957 32.56 73.3417 33.238 72.2497 33.73C71.1697 34.222 70.0057 34.468 68.7577 34.468ZM68.7577 29.068C69.4417 29.068 70.0537 28.882 70.5937 28.51C71.1457 28.138 71.5777 27.646 71.8897 27.034C72.2017 26.41 72.3577 25.732 72.3577 25C72.3577 24.244 72.1897 23.554 71.8537 22.93C71.5297 22.306 71.0917 21.814 70.5397 21.454C69.9997 21.082 69.4057 20.896 68.7577 20.896C68.0857 20.896 67.4737 21.088 66.9217 21.472C66.3817 21.844 65.9497 22.342 65.6257 22.966C65.3137 23.59 65.1577 24.268 65.1577 25C65.1577 25.768 65.3197 26.458 65.6437 27.07C65.9797 27.682 66.4177 28.168 66.9577 28.528C67.5097 28.888 68.1097 29.068 68.7577 29.068ZM95.1069 21.4L87.5469 28.6H95.1069V34H79.7349V28.6L87.2949 21.4H79.7349V16H95.1069V21.4Z" fill="#878787"/>
<path d="M104.709 34H99.3091V16H104.709V34ZM101.973 35.872C102.753 35.872 103.407 36.13 103.935 36.646C104.463 37.162 104.727 37.804 104.727 38.572C104.727 39.328 104.463 39.964 103.935 40.48C103.407 41.008 102.759 41.272 101.991 41.272C101.235 41.272 100.599 41.008 100.083 40.48C99.5551 39.964 99.2911 39.328 99.2911 38.572C99.2911 37.804 99.5491 37.162 100.065 36.646C100.569 36.13 101.205 35.872 101.973 35.872Z" fill="url(#paint0_linear_362_998)"/>
<path d="M126.484 22.498V34H121.084V24.01C121.084 23.446 120.946 22.936 120.67 22.48C120.394 22.012 120.028 21.646 119.572 21.382C119.116 21.106 118.606 20.968 118.042 20.968C117.478 20.968 116.962 21.106 116.494 21.382C116.038 21.646 115.672 22.012 115.396 22.48C115.132 22.936 115 23.446 115 24.01V34H109.6L109.582 16H114.982L115 17.134C115.6 16.618 116.284 16.216 117.052 15.928C117.82 15.64 118.63 15.496 119.482 15.496C120.778 15.496 121.954 15.814 123.01 16.45C124.066 17.074 124.906 17.914 125.53 18.97C126.166 20.026 126.484 21.202 126.484 22.498ZM146.98 22.498V34H141.58V24.01C141.58 23.446 141.442 22.936 141.166 22.48C140.89 22.012 140.524 21.646 140.068 21.382C139.612 21.106 139.102 20.968 138.538 20.968C137.974 20.968 137.458 21.106 136.99 21.382C136.534 21.646 136.168 22.012 135.892 22.48C135.628 22.936 135.496 23.446 135.496 24.01V34H130.096L130.078 7H135.478L135.496 17.134C136.096 16.618 136.78 16.216 137.548 15.928C138.316 15.64 139.126 15.496 139.978 15.496C141.274 15.496 142.45 15.814 143.506 16.45C144.562 17.074 145.402 17.914 146.026 18.97C146.662 20.026 146.98 21.202 146.98 22.498ZM158.143 34.468C156.487 34.468 154.975 34.042 153.607 33.19C152.251 32.338 151.165 31.198 150.349 29.77C149.545 28.33 149.143 26.74 149.143 25C149.143 23.68 149.377 22.45 149.845 21.31C150.313 20.158 150.955 19.15 151.771 18.286C152.599 17.41 153.559 16.726 154.651 16.234C155.743 15.742 156.907 15.496 158.143 15.496C159.799 15.496 161.305 15.922 162.661 16.774C164.029 17.626 165.115 18.772 165.919 20.212C166.735 21.652 167.143 23.248 167.143 25C167.143 26.308 166.909 27.532 166.441 28.672C165.973 29.812 165.325 30.82 164.497 31.696C163.681 32.56 162.727 33.238 161.635 33.73C160.555 34.222 159.391 34.468 158.143 34.468ZM158.143 29.068C158.827 29.068 159.439 28.882 159.979 28.51C160.531 28.138 160.963 27.646 161.275 27.034C161.587 26.41 161.743 25.732 161.743 25C161.743 24.244 161.575 23.554 161.239 22.93C160.915 22.306 160.477 21.814 159.925 21.454C159.385 21.082 158.791 20.896 158.143 20.896C157.471 20.896 156.859 21.088 156.307 21.472C155.767 21.844 155.335 22.342 155.011 22.966C154.699 23.59 154.543 24.268 154.543 25C154.543 25.768 154.705 26.458 155.029 27.07C155.365 27.682 155.803 28.168 156.343 28.528C156.895 28.888 157.495 29.068 158.143 29.068Z" fill="#878787"/>
<path d="M170.367 34V8.8H178.719C180.459 8.8 182.085 9.13 183.597 9.79C185.121 10.438 186.459 11.344 187.611 12.508C188.775 13.66 189.681 14.998 190.329 16.522C190.989 18.034 191.319 19.66 191.319 21.4C191.319 23.14 190.989 24.772 190.329 26.296C189.681 27.808 188.775 29.146 187.611 30.31C186.459 31.462 185.121 32.368 183.597 33.028C182.085 33.676 180.459 34 178.719 34H170.367ZM175.767 28.6H178.719C179.691 28.6 180.609 28.414 181.473 28.042C182.337 27.67 183.105 27.154 183.777 26.494C184.449 25.834 184.971 25.072 185.343 24.208C185.727 23.332 185.919 22.396 185.919 21.4C185.919 20.404 185.727 19.474 185.343 18.61C184.971 17.746 184.449 16.984 183.777 16.324C183.117 15.652 182.355 15.13 181.491 14.758C180.627 14.386 179.703 14.2 178.719 14.2H175.767V28.6ZM201.736 34.468C200.08 34.468 198.568 34.042 197.2 33.19C195.844 32.338 194.758 31.192 193.942 29.752C193.138 28.312 192.736 26.722 192.736 24.982C192.736 23.674 192.97 22.45 193.438 21.31C193.906 20.158 194.548 19.15 195.364 18.286C196.192 17.41 197.152 16.726 198.244 16.234C199.336 15.742 200.5 15.496 201.736 15.496C203.176 15.496 204.49 15.814 205.678 16.45C206.878 17.074 207.886 17.926 208.702 19.006C209.53 20.074 210.118 21.28 210.466 22.624C210.814 23.968 210.85 25.354 210.574 26.782H198.568C198.736 27.202 198.958 27.586 199.234 27.934C199.522 28.27 199.87 28.54 200.278 28.744C200.698 28.948 201.184 29.056 201.736 29.068C202.264 29.08 202.75 28.966 203.194 28.726C203.65 28.486 204.046 28.162 204.382 27.754L209.89 29.032C209.158 30.628 208.066 31.936 206.614 32.956C205.162 33.964 203.536 34.468 201.736 34.468ZM198.37 22.822H205.12C204.952 22.306 204.7 21.85 204.364 21.454C204.028 21.058 203.632 20.746 203.176 20.518C202.732 20.29 202.252 20.176 201.736 20.176C201.232 20.176 200.752 20.29 200.296 20.518C199.852 20.746 199.462 21.058 199.126 21.454C198.802 21.85 198.55 22.306 198.37 22.822ZM224.975 34H217.991L211.439 16H217.199L221.483 27.808L225.767 16H231.527L224.975 34Z" fill="url(#paint1_linear_362_998)"/>
<defs>
<linearGradient id="paint0_linear_362_998" x1="102.018" y1="50" x2="102.018" y2="0" gradientUnits="userSpaceOnUse">
<stop stop-color="#7D38FC"/>
<stop offset="1" stop-color="#5256FF"/>
</linearGradient>
<linearGradient id="paint1_linear_362_998" x1="170.018" y1="0" x2="170.018" y2="43" gradientUnits="userSpaceOnUse">
<stop stop-color="#7D38FC"/>
<stop offset="1" stop-color="#5256FF"/>
</linearGradient>
</defs>
</svg>
